<svg version="1.1" viewBox="0.0 0.0 192.0 96.0" fill="none" stroke="none" stroke-linecap="square" stroke-miterlimit="10" xmlns:xlink="http://www.w3.org/1999/xlink" xmlns="http://www.w3.org/2000/svg"><clipPath id="p.0"><path d="m0 0l192.0 0l0 96.0l-192.0 0l0 -96.0z" clip-rule="nonzero"/></clipPath><g clip-path="url(#p.0)"><path fill="#000000" fill-opacity="0.0" d="m0 0l192.0 0l0 96.0l-192.0 0z" fill-rule="evenodd"/><path fill="#000000" fill-opacity="0.0" d="m0 0l192.0 0l0 96.0l-192.0 0z" fill-rule="evenodd"/><path fill="#ffffff" d="m43.685547 10.165623q4.75 0 7.9375 2.46875q3.203125 2.453125 3.828125 6.796875l-3.796875 0q-0.625 -2.921875 -2.75 -4.484375q-2.109375 -1.578125 -5.25 -1.578125q-4.53125 0 -7.109375 3.203125q-2.5625 3.203125 -2.5625 8.359375q0 5.46875 2.515625 8.71875q2.515625 3.234375 7.1875 3.234375q3.5 0 5.734375 -2.21875q2.234375 -2.21875 2.515625 -6.03125l3.796875 0q-0.625 5.546875 -3.859375 8.5q-3.21875 2.953125 -8.5 2.953125q-6.125 0 -9.671875 -4.0625q-3.53125 -4.0625 -3.53125 -10.828125q0 -6.65625 3.65625 -10.84375q3.65625 -4.1875 9.859375 -4.1875zm19.808594 0.671875l0 28.5625l-3.40625 0l0 -28.5625l3.40625 0zm8.886719 0l0 4.171875l-3.40625 0l0 -4.171875l3.40625 0zm0 7.875l0 20.6875l-3.40625 0l0 -20.6875l3.40625 0zm13.917969 -0.46875q3.796875 0 6.15625 1.796875q2.359375 1.796875 2.78125 5.3125l-3.515625 0q-0.421875 -2.015625 -1.765625 -3.0625q-1.328125 -1.0625 -3.359375 -1.0625q-3.15625 0 -4.796875 2.125q-1.640625 2.125 -1.640625 5.96875q0 3.4375 1.609375 5.5q1.625 2.0625 4.421875 2.0625q2.484375 0 3.90625 -1.34375q1.4375 -1.34375 1.78125 -3.703125l3.46875 0q-0.5625 3.875 -2.90625 5.96875q-2.34375 2.078125 -6.21875 2.078125q-4.5 0 -7.078125 -2.84375q-2.578125 -2.84375 -2.578125 -7.71875q0 -5.078125 2.59375 -8.078125q2.609375 -3.0 7.140625 -3.0zm16.453125 -7.40625l0 16.921875l9.453125 -9.046875l4.546875 0l-8.203125 7.515625l8.8125 13.171875l-4.3125 0l-7.09375 -10.796875l-3.203125 2.96875l0 7.828125l-3.40625 0l0 -28.5625l3.40625 0zm33.0 1.6875l0 6.1875l4.125 0l0 3.015625l-4.125 0l0 12.9375q0 1.546875 1.03125 1.640625q1.03125 0.078125 2.140625 0.078125l0.953125 0l0 3.015625l-2.8125 0q-2.796875 0 -3.75 -1.0q-0.953125 -1.0 -0.953125 -3.34375l0 -13.328125l-3.53125 0l0 -3.015625l3.53125 0l0 -6.1875l3.390625 0zm16.3125 5.71875q4.6875 0 7.359375 3.03125q2.6875 3.03125 2.6875 7.8125q0 4.828125 -2.734375 7.8125q-2.734375 2.984375 -7.3125 2.984375q-4.484375 0 -7.265625 -2.9375q-2.765625 -2.9375 -2.765625 -7.859375q0 -4.921875 2.703125 -7.875q2.71875 -2.96875 7.328125 -2.96875zm-6.4375 10.84375q0 3.546875 1.8125 5.671875q1.8125 2.125 4.625 2.125q2.796875 0 4.625 -2.125q1.828125 -2.140625 1.828125 -5.671875q0 -3.53125 -1.828125 -5.6875q-1.8125 -2.171875 -4.65625 -2.171875q-2.734375 0 -4.578125 2.125q-1.828125 2.125 -1.828125 5.734375z" fill-rule="nonzero"/><path fill="#ffffff" d="m40.257812 58.837494q5.296875 0 7.1875 2.140625q1.890625 2.140625 1.890625 4.859375q0 2.265625 -1.109375 3.921875q-1.109375 1.65625 -3.125 2.484375l0 0.078125q2.640625 0.5625 4.046875 2.40625q1.40625 1.828125 1.40625 4.46875q0 3.5 -2.453125 5.859375q-2.4375 2.34375 -6.078125 2.34375l-13.953125 0l0 -28.5625l12.1875 0zm-0.609375 12.265625q2.859375 0 4.375 -1.0625q1.53125 -1.0625 1.53125 -3.484375q0 -2.265625 -1.28125 -3.390625q-1.265625 -1.125 -4.578125 -1.125l-7.828125 0l0 9.0625l7.78125 0zm1.875 13.09375q2.328125 0 3.765625 -1.375q1.453125 -1.375 1.453125 -3.75q0 -2.390625 -1.640625 -3.578125q-1.640625 -1.1875 -4.703125 -1.1875l-8.53125 0l0 9.890625l9.65625 0zm16.777344 -17.484375l0 14.109375q0 1.75 1.125 2.90625q1.125 1.15625 3.09375 1.15625q2.9375 0 4.53125 -1.78125q1.59375 -1.796875 1.59375 -4.578125l0 -11.8125l3.390625 0l0 20.6875l-3.203125 0l0 -3.28125l-0.078125 0q-1.125 1.96875 -2.828125 2.875q-1.703125 0.890625 -3.90625 0.890625q-3.609375 0 -5.359375 -1.859375q-1.75 -1.875 -1.75 -5.515625l0 -13.796875l3.390625 0zm34.04297 0l0 2.328125l-12.625 15.34375l13.203125 0l0 3.015625l-17.453125 0l0 -2.59375l12.484375 -15.078125l-11.671875 0l0 -3.015625l16.0625 0zm19.199219 0l0 2.328125l-12.625 15.34375l13.203125 0l0 3.015625l-17.453125 0l0 -2.59375l12.484375 -15.078125l-11.671875 0l0 -3.015625l16.0625 0zm19.640625 -7.875l0 28.5625l-3.796875 0l0 -28.5625l3.796875 0zm15.8515625 7.40625q3.734375 0 5.421875 1.921875q1.6875 1.90625 1.6875 5.46875l0 13.765625l-3.390625 0l0 -14.125q0 -1.75 -1.125 -2.890625q-1.125 -1.15625 -3.125 -1.15625q-2.859375 0 -4.484375 1.78125q-1.609375 1.765625 -1.609375 4.578125l0 11.8125l-3.390625 0l0 -20.6875l3.203125 0l0 3.28125l0.078125 0q1.125 -1.9375 2.78125 -2.84375q1.65625 -0.90625 3.953125 -0.90625zm16.746094 -7.40625l0 8.796875l-1.0 12.4375l-1.796875 0l-1.0 -12.4375l0 -8.796875l3.796875 0zm0.328125 24.125l0 4.4375l-4.4375 0l0 -4.4375l4.4375 0z" fill-rule="nonzero"/></g></svg>